<?xml version="1.0" encoding="UTF-8"?>
<svg width="47px" height="48px" viewBox="0 0 47 48" version="1.1" xmlns="http://www.w3.org/2000/svg" xmlns:xlink="http://www.w3.org/1999/xlink">
    <!-- Generator: Sketch 49.1 (51147) - http://www.bohemiancoding.com/sketch -->
    <title>Group 7</title>
    <desc>Created with Sketch.</desc>
    <defs>
        <rect id="path-1" x="0" y="0" width="48" height="48"></rect>
    </defs>
    <g id="Page-1" stroke="none" stroke-width="1" fill="none" fill-rule="evenodd">
        <g id="Group-7" transform="translate(-1.000000, 0.000000)">
            <mask id="mask-2" fill="white">
                <use xlink:href="#path-1"></use>
            </mask>
            <g id="Rectangle-7"></g>
            <g id="icon" mask="url(#mask-2)" fill="#999999" fill-rule="nonzero">
                <g transform="translate(22.272000, 24.000000) rotate(45.000000) translate(-22.272000, -24.000000) translate(-2.304000, -0.480000)" id="Shape">
                    <path d="M29.00016,19.061952 L23.620896,17.532864 C23.116128,17.38992 22.58208,17.524224 22.221024,17.88528 L17.113824,22.99248 C16.752,23.354304 16.617024,23.887776 16.76064,24.39312 L18.289056,29.772384 C18.432,30.277728 18.83184,30.677664 19.337184,30.820416 L24.716448,32.347392 C25.22112,32.491008 25.755264,32.357472 26.117088,31.996416 L31.22496,26.888544 C31.586016,26.527392 31.72032,25.993248 31.576704,25.488672 L30.047616,20.108736 C29.903232,19.60464 29.504064,19.205472 29.00016,19.061952 Z"></path>
                    <path d="M25.14288,9.44496 C23.859264,9.518208 22.227456,10.006368 22.227456,10.006368 C21.966912,10.055904 21.742848,10.212384 21.607104,10.437024 C21.47136,10.66176 21.435552,10.935936 21.51024,11.193696 L22.780224,15.662688 C22.923744,16.16736 23.32224,16.566528 23.826912,16.710048 L29.206944,18.239232 C29.711616,18.382752 30.244992,18.249312 30.606048,17.887488 L34.80864,13.684896 C35.016768,13.476 35.113824,13.180224 35.07072,12.881568 C35.029056,12.583584 34.851744,12.318048 34.590336,12.160128 C34.590336,12.160128 33.468288,11.219712 32.062656,10.632384 C30.038208,9.788832 27.65328,9.300576 25.14288,9.44496 Z"></path>
                    <path d="M11.07984,21.588288 L15.09792,22.72896 C15.602592,22.872576 16.135296,22.73904 16.497024,22.377216 L21.605664,17.26944 C21.966048,16.908288 22.100256,16.374144 21.95664,15.869568 L21.754944,15.160224 L20.766432,11.68272 C20.684544,11.394144 20.475648,11.154336 20.201376,11.03232 C19.926432,10.909536 19.614816,10.918176 19.355712,11.056032 C19.355712,11.056032 18.279552,11.482464 17.253024,12.168768 C16.169664,12.895296 15.122976,13.760352 14.121504,14.761056 C13.143744,15.739584 12.3024,16.774752 11.600256,17.858784 C10.89744,18.944256 10.441536,20.19984 10.441536,20.19984 C10.31376,20.4576 10.311648,20.7648 10.434432,21.034752 C10.558656,21.303264 10.795584,21.507168 11.07984,21.588288 Z"></path>
                    <path d="M17.466336,29.979744 L15.93792,24.599712 C15.795744,24.094368 15.395904,23.6952 14.890464,23.55168 L14.591808,23.466912 L10.66992,22.352736 C10.408608,22.278816 10.131552,22.315392 9.905376,22.45392 C9.679968,22.592544 9.5256,22.820736 9.478272,23.084928 C9.478272,23.084928 9.117888,24.405888 9.04752,25.531488 C8.88384,28.150368 8.771136,31.187136 9.550752,33.171456 C10.146624,34.6848 11.001696,35.714304 11.001696,35.714304 C11.153856,35.98272 11.422368,36.168 11.724576,36.215328 C12.026016,36.261312 12.327648,36.16512 12.538656,35.954016 L17.113824,31.379616 C17.47488,31.017888 17.610624,30.484512 17.466336,29.979744 Z"></path>
                    <path d="M36.986016,14.554944 C36.828096,14.2944 36.562464,14.116992 36.263808,14.073984 C35.965824,14.03232 35.670144,14.12928 35.46192,14.336736 L31.258656,18.539328 C30.897504,18.901152 30.763296,19.434624 30.906144,19.939968 L32.436,25.319136 C32.578848,25.823136 32.978784,26.222304 33.48336,26.36592 L37.951584,27.635808 C38.210784,27.709728 38.484288,27.67392 38.709024,27.538944 C38.933664,27.4032 39.089568,27.17856 39.139008,26.91936 C39.139008,26.91936 39.627168,25.286112 39.701184,24.003264 C39.845472,21.49344 39.357312,19.107264 38.513088,17.082624 C37.92576,15.67776 36.986016,14.554944 36.986016,14.554944 Z"></path>
                    <path d="M37.464192,28.37952 L33.986016,27.391008 L33.276672,27.188544 C32.772,27.044928 32.238624,27.179904 31.877472,27.540288 L26.768928,32.648928 C26.407872,33.009312 26.273568,33.544128 26.417184,34.048128 L27.557856,38.066208 C27.638976,38.350464 27.84288,38.58672 28.112064,38.710848 C28.380672,38.834304 28.687872,38.831424 28.946304,38.704416 C28.946304,38.704416 30.201888,38.24784 31.28736,37.546464 C32.371392,36.84432 33.40656,36.002208 34.38576,35.02368 C35.38656,34.022208 36.251616,32.976288 36.977376,31.892256 C37.664448,30.866304 38.09088,29.789472 38.09088,29.789472 C38.226528,29.530272 38.236608,29.220192 38.113824,28.94448 C37.991808,28.66896 37.752,28.460736 37.464192,28.37952 Z"></path>
                    <path d="M25.678368,34.553568 L25.594368,34.255584 C25.450752,33.75024 25.051008,33.3504 24.54624,33.207456 L19.165536,31.679808 C18.661632,31.536192 18.127488,31.670496 17.766336,32.03232 L13.19184,36.607488 C12.980832,36.818496 12.883872,37.11936 12.930528,37.421568 C12.978624,37.723104 13.163136,37.991616 13.431648,38.143872 C13.431648,38.143872 14.461152,38.999616 15.974496,39.59472 C17.95872,40.375008 20.995488,40.262304 23.614368,40.098624 C24.739296,40.027584 26.060256,39.6672 26.060256,39.6672 C26.324448,39.619872 26.552736,39.466176 26.692032,39.240768 C26.83056,39.014016 26.867232,38.738304 26.792544,38.475456 L25.678368,34.553568 Z"></path>
                    <path d="M38.41392,15.244128 C38.41392,15.244128 40.73424,14.470176 41.409696,13.987104 C42.087456,13.503264 43.440672,10.989888 43.440672,10.216704 C43.440672,9.44352 43.827648,8.670336 42.183648,7.026432 C40.540416,5.383104 39.76656,5.769312 38.994048,5.769312 C38.219424,5.769312 35.70672,7.123296 35.22288,7.79952 C34.73904,8.476512 33.96576,10.796832 33.96576,10.796832 C33.96576,10.796832 35.899104,11.956992 36.576096,12.633888 C37.253088,13.310112 38.41392,15.244128 38.41392,15.244128 Z"></path>
                    <path d="M15.115872,3.91488 L21.58272,5.759232 C21.58272,5.759232 22.284096,7.598496 22.431264,8.877792 C25.878624,7.68816 28.827072,8.574048 28.827072,8.574048 L27.948384,4.522944 C27.291456,1.494816 24.318624,-0.424128 21.277632,0.21552 L15.217824,1.491264 C14.654304,1.610496 14.242272,2.096448 14.218464,2.670816 C14.19408,3.244416 14.564544,3.7584 15.115872,3.91488 Z"></path>
                    <path d="M44.721408,21.296736 L40.670304,20.418048 C40.670304,20.418048 41.556864,23.365632 40.367232,26.81376 C41.645856,26.960256 43.48512,27.661632 43.48512,27.661632 L45.329376,34.129152 C45.486624,34.67904 45.999936,35.050944 46.574208,35.02656 C47.147808,35.002176 47.634624,34.590144 47.752992,34.027296 L49.028736,27.967488 C49.669248,24.926496 47.749536,21.952896 44.721408,21.296736 Z"></path>
                    <path d="M4.290624,24.39312 C2.812512,24.146112 1.437024,25.270368 1.222368,25.851936 L0.092448,28.90368 C-0.098592,29.4192 0.011328,29.997024 0.378144,30.406272 C0.744288,30.815424 1.307808,30.988512 1.840416,30.85488 L7.984992,29.31936 C7.369056,27.471456 7.984992,24.884832 7.984992,24.884832 L4.290624,24.39312 Z"></path>
                    <path d="M23.981952,40.881888 C23.981952,40.881888 21.395328,41.497824 19.548192,40.881888 L18.011136,47.02704 C17.878272,47.559744 18.05136,48.122592 18.460512,48.488736 C18.86976,48.855552 19.44768,48.966144 19.963872,48.7752 L23.014848,47.644512 C23.595648,47.429088 24.720672,46.055136 24.473664,44.57616 L23.981952,40.881888 Z"></path>
                </g>
            </g>
        </g>
    </g>
</svg>