<?xml version="1.0" encoding="UTF-8"?>
<svg width="120px" height="120px" viewBox="0 0 120 120" version="1.1" xmlns="http://www.w3.org/2000/svg" xmlns:xlink="http://www.w3.org/1999/xlink">
    <!-- Generator: Sketch 49.1 (51147) - http://www.bohemiancoding.com/sketch -->
    <title>Rectangle 7</title>
    <desc>Created with Sketch.</desc>
    <defs>
        <rect id="path-1" x="0" y="0" width="120" height="120"></rect>
    </defs>
    <g id="Page-1" stroke="none" stroke-width="1" fill="none" fill-rule="evenodd">
        <g id="Group-7">
            <mask id="mask-2" fill="white">
                <use xlink:href="#path-1"></use>
            </mask>
            <g id="Rectangle-7"></g>
            <g id="icon" mask="url(#mask-2)" fill="#999999" fill-rule="nonzero">
                <g transform="translate(55.500000, 60.000000) rotate(45.000000) translate(-55.500000, -60.000000) translate(-6.000000, -1.000000)" id="Shape">
                    <path d="M72.5712012,47.4991451 L59.1099082,43.6889176 C57.8467559,43.3327255 56.510332,43.6673882 55.6068105,44.5670784 L42.8263418,57.2933529 C41.9208984,58.1949569 41.5831289,59.5242784 41.9425195,60.7835098 L45.767291,74.1877216 C46.125,75.4469529 47.1255762,76.4435255 48.3901699,76.7992392 L61.8514629,80.6042039 C63.114375,80.9620706 64.4510391,80.6293216 65.3564824,79.7296314 L78.1386328,67.0016824 C79.0421543,66.1017529 79.3782422,64.7707569 79.0188516,63.5134392 L75.1923984,50.1075529 C74.8310859,48.8514314 73.8321914,47.8567725 72.5712012,47.4991451 Z"></path>
                    <path d="M62.918584,23.5352353 C59.7064102,23.7177569 55.6229062,24.9341686 55.6229062,24.9341686 C54.9709102,25.0576039 54.4102031,25.4475255 54.0705117,26.0072902 C53.7308203,26.5672941 53.6412129,27.2504941 53.8281152,27.8927882 L57.0061758,39.0287569 C57.3653262,40.2863137 58.3625391,41.2809725 59.6254512,41.6386 L73.088666,45.4490667 C74.3515781,45.8066941 75.6863203,45.4741843 76.5898418,44.5725804 L87.106582,34.1004353 C87.6274102,33.579902 87.8702871,32.8428784 87.7624219,32.0986784 C87.6581602,31.3561529 87.2144473,30.6944824 86.5602891,30.3009725 C86.5602891,30.3009725 83.7524297,27.9576157 80.234918,26.4940941 C75.1688555,24.3921059 69.2007129,23.1754549 62.918584,23.5352353 Z"></path>
                    <path d="M27.7266504,53.7943451 L37.7816602,56.6367059 C39.0445723,56.9945725 40.3776328,56.6618235 41.2828359,55.7602196 L54.0669082,43.0325098 C54.968748,42.1325804 55.3045957,40.8015843 54.9452051,39.5442667 L54.4404727,37.776702 L51.9667793,29.1113529 C51.7618594,28.3922706 51.2391094,27.7947098 50.5527598,27.4906667 C49.8647285,27.1847098 49.0849277,27.2062392 48.4365352,27.5497529 C48.4365352,27.5497529 45.7435078,28.612349 43.1746816,30.322502 C40.4636367,32.1328863 37.8443613,34.2884588 35.3382363,36.7820431 C32.8914492,39.2203686 30.7860352,41.7998314 29.0289609,44.5010549 C27.2702051,47.2058667 26.129332,50.3345686 26.129332,50.3345686 C25.8095801,50.9768627 25.8042949,51.7423529 26.1115547,52.4150275 C26.422418,53.0841137 27.0153164,53.5922078 27.7266504,53.7943451 Z"></path>
                    <path d="M43.7084824,74.7044275 L39.8837109,61.298302 C39.5279238,60.0390706 38.5273477,59.0444118 37.2625137,58.6867843 L36.5151445,58.4755569 L26.7008496,55.6992196 C26.0469316,55.5150235 25.3536152,55.6061647 24.787623,55.9513529 C24.2235527,56.2967804 23.8372559,56.8653961 23.7188203,57.5237176 C23.7188203,57.5237176 22.8169805,60.8153255 22.6408887,63.6201294 C22.2312891,70.1459333 21.9492539,77.7130431 23.9001973,82.6576314 C25.391332,86.4286275 27.5310996,88.9939765 27.5310996,88.9939765 C27.9118711,89.6628235 28.5838066,90.1245098 29.3400645,90.2424431 C30.0944004,90.3570275 30.8492168,90.1173333 31.377252,89.591298 L42.8263418,78.1926706 C43.7298633,77.2913059 44.0695547,75.9622235 43.7084824,74.7044275 Z"></path>
                    <path d="M92.5553379,36.2684471 C92.1601523,35.6192157 91.4954238,35.1771451 90.7480547,35.0699765 C90.0023672,34.9661569 89.2624453,35.2077647 88.741377,35.7247098 L78.2229551,46.1968549 C77.3191934,47.0984588 76.9833457,48.4277804 77.3408145,49.6870118 L81.1691895,63.0909843 C81.5266582,64.3468667 82.5274746,65.3415255 83.7901465,65.6993922 L94.9716152,68.8637373 C95.620248,69.0479333 96.3046758,68.9587059 96.8670645,68.6223686 C97.4292129,68.2841176 97.8193535,67.7243529 97.9430742,67.0784706 C97.9430742,67.0784706 99.164666,63.0086941 99.3498867,59.8120549 C99.710959,53.558 98.4893672,47.6120549 96.3767461,42.5669961 C94.9069922,39.0663137 92.5553379,36.2684471 92.5553379,36.2684471 Z"></path>
                    <path d="M93.7519453,70.7169412 L85.0480137,68.2537373 L83.2729219,67.7492314 C82.0100098,67.3913647 80.6752676,67.727702 79.7715059,68.6257176 L66.9876738,81.3555804 C66.0841523,82.2535961 65.7480645,83.5862667 66.1074551,84.842149 L68.9619199,94.8545216 C69.164918,95.5628392 69.6751758,96.151549 70.348793,96.4608549 C71.0209687,96.7684863 71.7897187,96.7613098 72.4364297,96.4448275 C72.4364297,96.4448275 75.5784551,95.3071176 78.2947852,93.5594078 C81.0075117,91.8097843 83.597959,89.7113843 86.0483496,87.2730588 C88.552793,84.7775608 90.7175449,82.1713059 92.5337168,79.4700824 C94.2530742,76.9135843 95.3201953,74.230302 95.3201953,74.230302 C95.6596465,73.5844196 95.6848711,72.8117529 95.3776113,72.1247255 C95.0722734,71.4381765 94.472168,70.9193176 93.7519453,70.7169412 Z"></path>
                    <path d="M64.2586113,86.1016196 L64.0484062,85.3590941 C63.6890156,84.0998627 62.6886797,83.1035294 61.4255273,82.7473373 L47.9606309,78.940698 C46.6996406,78.5828314 45.3629766,78.9174941 44.4592148,79.819098 L33.0118066,91.2196392 C32.4837715,91.7454353 32.2411348,92.4951373 32.3578887,93.2481882 C32.4782461,93.9995647 32.9399766,94.668651 33.6119121,95.0480471 C33.6119121,95.0480471 36.1881855,97.1804157 39.9752402,98.6633137 C44.9406445,100.607659 52.5399785,100.32682 59.0935723,99.9189569 C61.9086387,99.7419373 65.2142637,98.8439216 65.2142637,98.8439216 C65.8753887,98.7259882 66.446666,98.3430039 66.7952461,97.7813255 C67.1419043,97.216298 67.2336738,96.5292706 67.0467715,95.874298 L64.2586113,86.1016196 Z"></path>
                    <path d="M96.128584,37.9857765 C96.128584,37.9857765 101.935049,36.0572196 103.625338,34.8534863 C105.321393,33.6478392 108.707736,27.3849333 108.707736,25.4582902 C108.707736,23.5316471 109.676121,21.6050039 105.562107,17.5086745 C101.450016,13.4137804 99.5134863,14.3761451 97.5803203,14.3761451 C95.6418691,14.3761451 89.3539746,17.7500431 88.1431934,19.4350784 C86.9324121,21.1220275 84.9973242,26.9038706 84.9973242,26.9038706 C84.9973242,26.9038706 89.8354043,29.7947922 91.5295371,31.481502 C93.2236699,33.1665373 96.128584,37.9857765 96.128584,37.9857765 Z"></path>
                    <path d="M37.826584,9.75521569 L54.0094922,14.3510275 C54.0094922,14.3510275 55.7646445,18.9341608 56.1329238,22.121949 C64.7597402,19.1575882 72.1380586,21.3650706 72.1380586,21.3650706 L69.9391934,11.2704078 C68.2952695,3.72482745 60.8559316,-1.0568549 53.2460273,0.537039216 L38.0817129,3.71597647 C36.6715371,4.01308235 35.6404512,5.22399216 35.580873,6.65521961 C35.5198535,8.08453333 36.446918,9.36529412 37.826584,9.75521569 Z"></path>
                    <path d="M111.912703,53.0678471 L101.775053,50.8783059 C101.775053,50.8783059 103.993617,58.2231843 101.016633,66.8153333 C104.216314,67.1803765 108.818965,68.9280863 108.818965,68.9280863 L113.434107,85.0440471 C113.827611,86.4142745 115.112145,87.3409961 116.549227,87.2802353 C117.984627,87.2194745 119.202855,86.1927608 119.499064,84.7902392 L122.691539,69.6902275 C124.294383,62.1125922 119.490416,54.7028863 111.912703,53.0678471 Z"></path>
                    <path d="M10.7370352,60.7835098 C7.03814648,60.1680078 3.59606836,62.9694627 3.0589043,64.4186314 L0.231345703,72.0230588 C-0.246720703,73.3076471 0.0283476563,74.7474863 0.946283203,75.7672627 C1.86253711,76.7868 3.27271289,77.2181059 4.6055332,76.8851176 L19.9819746,73.0588627 C18.4406309,68.4542 19.9819746,62.0087725 19.9819746,62.0087725 L10.7370352,60.7835098 Z"></path>
                    <path d="M60.0134297,101.870718 C60.0134297,101.870718 53.5405547,103.405525 48.9182051,101.870718 L45.0718125,117.183392 C44.7393281,118.5108 45.1724707,119.913322 46.1963496,120.82569 C47.2204687,121.739733 48.6666797,122.01531 49.9584199,121.53951 L57.5933086,118.722027 C59.0467266,118.185227 61.8620332,114.761573 61.2439102,111.076216 L60.0134297,101.870718 Z"></path>
                </g>
            </g>
        </g>
    </g>
</svg>